<?xml version="1.0" encoding="utf-8"?>
<!-- Generator: Adobe Illustrator 16.0.0, SVG Export Plug-In . SVG Version: 6.00 Build 0)  -->
<!DOCTYPE svg PUBLIC "-//W3C//DTD SVG 1.1//EN" "http://www.w3.org/Graphics/SVG/1.1/DTD/svg11.dtd">
<svg version="1.1" id="레이어_1" xmlns="http://www.w3.org/2000/svg" xmlns:xlink="http://www.w3.org/1999/xlink" x="0px"
	 y="0px" width="240px" height="40px" viewBox="0 0 240 40" enable-background="new 0 0 240 40" xml:space="preserve">
<g opacity="0.7">
	<g>
		<g>
			<path fill="#D4D4D4" d="M13.127,36.436c-2.172,0-4.227-0.438-6.03-1.229c3.396,1.533,7.051,2.109,10.411,2.109
				c9.63,0,17.508-7.838,17.508-17.507c0-3.188-0.853-6.178-2.343-8.752c-0.324-0.561-1.04-0.756-1.602-0.433L20.93,16.48
				c-0.496,0.286-0.438,1.021,0.099,1.223c2.343,0.883,4.122,2.617,4.762,4.729c0.3,0.93,0.463,1.907,0.463,2.92
				C26.254,31.473,20.377,36.436,13.127,36.436z"/>
			<path fill="#D4D4D4" d="M13.127,36.436c7.25,0,13.127-4.963,13.127-11.084c0-1.026-0.168-2.021-0.477-2.965
				c0.178,0.568,0.272,1.166,0.272,1.781c0,3.918-3.824,7.094-8.542,7.094c-2.624,0-4.969-0.982-6.536-2.529
				c-0.282-0.276-0.741-0.252-0.996,0.052L5.877,33.67c-0.276,0.328-0.183,0.83,0.194,1.033
				C8.104,35.809,10.532,36.436,13.127,36.436z"/>
		</g>
		<g>
			<path fill="#D4D4D4" d="M21.888,3.183c2.173,0,4.228,0.439,6.031,1.23c-3.396-1.534-7.051-2.112-10.412-2.112
				C7.878,2.301,0,10.14,0,19.81c0,3.188,0.853,6.176,2.342,8.752c0.325,0.562,1.041,0.756,1.603,0.433l10.141-5.854
				c0.496-0.287,0.438-1.021-0.099-1.226c-2.344-0.88-4.122-2.615-4.762-4.727c-0.301-0.93-0.464-1.909-0.464-2.919
				C8.761,8.146,14.639,3.183,21.888,3.183z"/>
			<path fill="#D4D4D4" d="M21.888,3.183c-7.25,0-13.127,4.963-13.127,11.086c0,1.026,0.168,2.02,0.478,2.963
				c-0.178-0.568-0.272-1.165-0.272-1.78c0-3.918,3.824-7.095,8.542-7.095c2.623,0,4.97,0.983,6.536,2.529
				c0.281,0.277,0.74,0.252,0.994-0.05l4.1-4.886c0.276-0.329,0.183-0.831-0.195-1.036C26.912,3.811,24.484,3.183,21.888,3.183z"/>
		</g>
	</g>
	<g>
		<path fill="#D4D4D4" d="M52.065,13.271c0.459,0.524,0.821,1.099,1.083,1.722c0.279,0.642,0.418,1.314,0.418,2.02
			c0,1.525-0.558,2.848-1.674,3.963c-1.132,1.133-2.503,1.697-4.112,1.697c-1.61,0-2.98-0.564-4.112-1.697
			c-1.101-1.098-1.65-2.42-1.65-3.963c0-0.706,0.131-1.378,0.394-2.02c0.247-0.623,0.607-1.198,1.084-1.722h-2.192v-2.429h4.63
			V8.098h3.743v2.744h4.604v2.429H52.065z M43.939,28.703v-4.971h3.521v4.986h12.73v2.428H46.38
			C45.033,31.146,43.939,30.053,43.939,28.703z M46.134,19.282c0.442,0.661,0.991,0.991,1.647,0.991c0.639,0,1.18-0.33,1.624-0.991
			c0.425-0.66,0.638-1.441,0.638-2.34c0-0.92-0.213-1.711-0.638-2.371c-0.443-0.66-0.985-0.991-1.624-0.991
			c-0.656,0-1.205,0.331-1.647,0.991c-0.411,0.66-0.616,1.451-0.616,2.371C45.519,17.841,45.724,18.622,46.134,19.282z
			 M59.674,18.311v6.925h-3.521V9.009h3.521v6.58h3.029v2.722H59.674z"/>
		<path fill="#D4D4D4" d="M79.302,31.146v-6.193H66.128v-2.451h6.55v-3.654h-8.396v-2.477h15.02V11.46H66.153V9.009h14.386
			c1.261,0,2.285,1.023,2.285,2.285v5.077h1.994v2.477h-8.421v3.654h4.143c1.261,0,2.285,1.023,2.285,2.285v6.359H79.302z"/>
		<path fill="#D4D4D4" d="M121.176,10.61c-0.148,3.086-1.304,5.062-3.472,6.933c-1.919,1.658-4.357,2.635-7.313,2.93l-0.936-2.451
			c2.133-0.164,3.891-0.747,5.27-1.749c1.478-1.083,2.291-2.503,2.438-4.763h-7.043V9.084h11.081L121.176,10.61z M124.945,30.801
			c-1.266,1.1-2.785,1.65-4.559,1.65c-1.788,0-3.298-0.551-4.53-1.65c-1.247-1.117-1.871-2.494-1.871-4.137
			c0-1.658,0.624-3.053,1.871-4.186c1.232-1.117,2.742-1.674,4.53-1.674c0.641,0,1.264,0.071,1.873,0.221
			c0.591,0.164,1.148,0.402,1.675,0.713V9.009h3.521v5.053h3.026v2.722h-3.026v5.422h-2.856c0.688,0.526,1.239,1.166,1.649,1.922
			c0.41,0.787,0.616,1.632,0.616,2.535C126.865,28.307,126.223,29.684,124.945,30.801z M122.432,24.115
			c-0.576-0.654-1.256-0.982-2.044-0.982c-0.803,0-1.477,0.328-2.017,0.982c-0.559,0.674-0.838,1.527-0.838,2.559
			c0,0.992,0.279,1.816,0.838,2.471c0.54,0.635,1.214,0.953,2.017,0.953c0.806,0,1.486-0.318,2.044-0.953
			c0.592-0.653,0.887-1.479,0.887-2.471C123.318,25.662,123.023,24.811,122.432,24.115z"/>
		<path fill="#D4D4D4" d="M143.424,11.891c0,3.299-0.982,5.693-2.953,8.188c-1.871,2.411-4.359,4.086-7.461,5.024l-1.479-2.431
			c2.512-0.704,4.488-1.959,5.934-3.766c1.512-1.887,2.266-4.177,2.266-7.373h-7.584V9.108h11.277V11.891L143.424,11.891z
			 M146.551,31.146V9.009h3.521v22.138H146.551z"/>
		<path fill="#D4D4D4" d="M163.738,19.45c-1.23,1.215-2.727,1.821-4.482,1.821c-1.789,0-3.309-0.606-4.555-1.821
			c-1.248-1.23-1.871-2.742-1.871-4.531s0.623-3.308,1.871-4.556c1.246-1.231,2.766-1.847,4.555-1.847
			c1.756,0,3.252,0.616,4.482,1.847c1.246,1.248,1.871,2.767,1.871,4.556S164.984,18.22,163.738,19.45z M155.711,28.703v-5.609h3.52
			v5.602h12.562v2.451h-13.64C156.805,31.146,155.711,30.053,155.711,28.703z M161.25,12.001c-0.541-0.75-1.205-1.125-1.994-1.125
			c-0.82,0-1.51,0.375-2.068,1.125c-0.559,0.788-0.838,1.764-0.838,2.928s0.279,2.11,0.838,2.84c0.56,0.729,1.248,1.094,2.068,1.094
			c0.805,0,1.469-0.366,1.994-1.094c0.559-0.73,0.838-1.677,0.838-2.84C162.088,13.765,161.809,12.789,161.25,12.001z
			 M171.271,17.45v7.786h-3.521V9.009h3.521v5.744h3.028v2.697H171.271z"/>
		<path fill="#D4D4D4" d="M176.883,21.729l-1.455-2.277c1.463-0.607,2.611-1.51,3.449-2.708c0.902-1.314,1.379-2.905,1.428-5.281
			h-4.014V9.009h11.523v2.451h-4.039c0.033,2.376,0.51,3.967,1.43,5.281c0.838,1.199,1.994,2.102,3.471,2.708l-1.453,2.278
			c-1.268-0.422-4.563-3.075-5.17-4.125C181.412,18.654,178.16,21.288,176.883,21.729z M178.287,28.703v-5.609h3.52v5.602h12.805
			v2.451h-13.885C179.379,31.146,178.287,30.053,178.287,28.703z M186.805,16.392v-2.575h4.014V9.009h3.521v16.228h-3.521v-8.844
			H186.805z"/>
		<g>
			<path fill="#D4D4D4" d="M222.756,18.698V11.46h7.781V9.009h-11.303v9.698c0,1.348,1.094,2.441,2.443,2.441h10.284v-2.451H222.756
				z"/>
			<path fill="#D4D4D4" d="M224.504,23.217h-3.521v5.486c0,1.35,1.095,2.443,2.443,2.443h13.66v-2.451h-12.582V23.217z"/>
			<polygon fill="#D4D4D4" points="236.996,14.629 236.996,9.009 233.473,9.009 233.473,18.698 233.473,21.148 233.473,25.236 
				236.996,25.236 236.996,17.327 240,17.327 240,14.629 			"/>
		</g>
		<g>
			<path fill="#D4D4D4" d="M196.74,20.566v-2.476h7.117v-3.899h3.521v3.899h4.381V11.46h-13.147V9.009h14.387
				c1.262,0,2.285,1.023,2.285,2.285v6.797h1.992v2.476H196.74z"/>
			<path fill="#D4D4D4" d="M212.215,23.486c-1.441-0.979-3.182-1.467-5.225-1.463c-2.082,0.004-3.828,0.498-5.244,1.483
				c-1.455,1-2.178,2.236-2.174,3.709c0.006,1.49,0.736,2.738,2.197,3.748c1.42,0.994,3.172,1.49,5.254,1.486
				c2.043-0.005,3.779-0.507,5.215-1.507c1.473-1.016,2.205-2.268,2.201-3.756C214.436,25.715,213.695,24.482,212.215,23.486z
				 M209.555,29.404c-0.68,0.561-1.522,0.844-2.535,0.846c-1.033,0.002-1.897-0.277-2.604-0.838
				c-0.725-0.576-1.088-1.313-1.092-2.209c-0.002-0.875,0.355-1.596,1.078-2.158c0.699-0.545,1.563-0.818,2.596-0.82
				c0.992-0.002,1.838,0.269,2.543,0.812c0.723,0.562,1.086,1.278,1.09,2.155C210.633,28.086,210.275,28.824,209.555,29.404z"/>
		</g>
		<g>
			<path fill="#D4D4D4" d="M92.203,20.745h-5.3v-2.428h20.536v2.428h-5.299H92.203z M89.02,16.952l-1.009-2.526
				c2.117-0.246,3.866-0.927,5.245-2.042c1.345-1.101,2.034-2.39,2.068-3.867h3.645c0.015,1.478,0.706,2.766,2.068,3.867
				c1.362,1.115,3.119,1.797,5.27,2.042l-1.035,2.526c-3.557-0.55-7.223-2.854-8.125-4.052
				C96.227,14.099,92.768,16.329,89.02,16.952z"/>
			<path fill="#D4D4D4" d="M102.38,23.486c-1.441-0.979-3.182-1.467-5.225-1.463c-2.081,0.004-3.829,0.498-5.244,1.483
				c-1.454,1-2.179,2.236-2.174,3.709c0.005,1.49,0.738,2.738,2.197,3.748c1.422,0.994,3.174,1.49,5.254,1.486
				c2.043-0.005,3.781-0.507,5.216-1.507c1.473-1.016,2.206-2.268,2.201-3.756C104.6,25.715,103.859,24.482,102.38,23.486z
				 M99.72,29.404c-0.679,0.561-1.524,0.844-2.535,0.846c-1.033,0.002-1.899-0.277-2.604-0.838
				c-0.725-0.576-1.088-1.313-1.091-2.209c-0.003-0.875,0.355-1.596,1.077-2.158c0.699-0.545,1.566-0.818,2.598-0.82
				c0.99-0.002,1.837,0.269,2.54,0.812c0.725,0.562,1.088,1.278,1.091,2.155C100.798,28.086,100.44,28.824,99.72,29.404z"/>
		</g>
	</g>
</g>
</svg>
