<?xml version="1.0" encoding="utf-8"?>
<!-- Generator: Adobe Illustrator 16.0.0, SVG Export Plug-In . SVG Version: 6.00 Build 0)  -->
<!DOCTYPE svg PUBLIC "-//W3C//DTD SVG 1.1//EN" "http://www.w3.org/Graphics/SVG/1.1/DTD/svg11.dtd">
<svg version="1.1" xmlns="http://www.w3.org/2000/svg" xmlns:xlink="http://www.w3.org/1999/xlink" x="0px" y="0px" width="38px"
	 height="38px" viewBox="0 0 38 38" enable-background="new 0 0 38 38" xml:space="preserve">
<g id="레이어_1" display="none">
	<path display="inline" fill="#EA269B" d="M24.414-73.414l-4.804-4.804C20.485-79.605,21-81.242,21-83c0-4.962-4.038-9-9-9
		s-9,4.038-9,9s4.038,9,9,9c1.758,0,3.395-0.515,4.782-1.39l4.804,4.804L24.414-73.414z M12-78c-2.757,0-5-2.243-5-5s2.243-5,5-5
		s5,2.243,5,5S14.757-78,12-78z"/>
	<image display="inline" overflow="visible" width="16" height="16" xlink:href="메뉴.png"  transform="matrix(2 0 0 2 46 3)">
	</image>
	<image display="inline" overflow="visible" width="16" height="16" xlink:href="메뉴.png"  transform="matrix(1 0 0 1 37 -8)">
	</image>
	<g display="inline">
		<path fill="#101010" d="M-48.5,6c3.033,0,5.5,2.467,5.5,5.5s-2.467,5.5-5.5,5.5s-5.5-2.467-5.5-5.5S-51.533,6-48.5,6 M-48.5,3
			c-4.694,0-8.5,3.806-8.5,8.5s3.806,8.5,8.5,8.5s8.5-3.806,8.5-8.5S-43.806,3-48.5,3L-48.5,3z"/>
	</g>
	<line display="inline" fill="none" stroke="#101010" stroke-width="3" stroke-miterlimit="10" x1="-37" y1="23" x2="-43" y2="17"/>
	
		<image display="inline" overflow="visible" width="19" height="19" xlink:href="돋보기.png"  transform="matrix(1 0 0 1 10 -19)">
	</image>
	<image display="inline" overflow="visible" width="19" height="19" xlink:href="돋보기.png"  transform="matrix(2 0 0 2 0 0)">
	</image>
</g>
<g id="레이어_2">
	<g>
		<path fill="#111111" d="M16,6c5.514,0,10,4.486,10,10s-4.486,10-10,10S6,21.514,6,16S10.486,6,16,6 M16,0C7.164,0,0,7.164,0,16
			s7.164,16,16,16s16-7.164,16-16S24.836,0,16,0L16,0z"/>
	</g>
	<line fill="none" stroke="#111111" stroke-width="6" stroke-miterlimit="10" x1="36" y1="36" x2="25" y2="25"/>
</g>
</svg>
