<?xml version="1.0" encoding="utf-8"?>
<!-- Generator: Adobe Illustrator 16.0.0, SVG Export Plug-In . SVG Version: 6.00 Build 0)  -->
<!DOCTYPE svg PUBLIC "-//W3C//DTD SVG 1.1//EN" "http://www.w3.org/Graphics/SVG/1.1/DTD/svg11.dtd">
<svg version="1.1" xmlns="http://www.w3.org/2000/svg" xmlns:xlink="http://www.w3.org/1999/xlink" x="0px" y="0px" width="32px"
	 height="32px" viewBox="0 0 32 32" enable-background="new 0 0 32 32" xml:space="preserve">
<g id="레이어_1" display="none">
	<path display="inline" fill="#EA269B" d="M-21.586-76.414l-4.804-4.804C-25.515-82.605-25-84.242-25-86c0-4.962-4.038-9-9-9
		s-9,4.038-9,9s4.038,9,9,9c1.758,0,3.395-0.515,4.782-1.39l4.804,4.804L-21.586-76.414z M-34-81c-2.757,0-5-2.243-5-5s2.243-5,5-5
		s5,2.243,5,5S-31.243-81-34-81z"/>
	<image display="inline" overflow="visible" width="16" height="16" xlink:href="메뉴.png"  transform="matrix(1 0 0 1 -9 -11)">
	</image>
	<g display="inline">
		<path fill="#101010" d="M-94.5,3c3.033,0,5.5,2.467,5.5,5.5s-2.467,5.5-5.5,5.5s-5.5-2.467-5.5-5.5S-97.533,3-94.5,3 M-94.5,0
			c-4.694,0-8.5,3.806-8.5,8.5s3.806,8.5,8.5,8.5s8.5-3.806,8.5-8.5S-89.806,0-94.5,0L-94.5,0z"/>
	</g>
	<line display="inline" fill="none" stroke="#101010" stroke-width="3" stroke-miterlimit="10" x1="-83" y1="20" x2="-89" y2="14"/>
	
		<image display="inline" overflow="visible" width="19" height="19" xlink:href="돋보기.png"  transform="matrix(1 0 0 1 -36 -22)">
	</image>
	
		<image display="inline" overflow="visible" width="19" height="19" xlink:href="돋보기.png"  transform="matrix(2 0 0 2 -46 -3)">
	</image>
</g>
<g id="레이어_2">
	<g>
		<path fill="#111111" d="M-30,3c5.514,0,10,4.486,10,10s-4.486,10-10,10s-10-4.486-10-10S-35.514,3-30,3 M-30-3
			c-8.836,0-16,7.164-16,16s7.164,16,16,16s16-7.164,16-16S-21.164-3-30-3L-30-3z"/>
	</g>
	<line fill="none" stroke="#111111" stroke-width="6" stroke-miterlimit="10" x1="-10" y1="33" x2="-21" y2="22"/>
	<image overflow="visible" width="16" height="16" xlink:href="메뉴.png"  transform="matrix(2 0 0 2 0 -50)">
	</image>
	<rect fill="#111111" width="10" height="10"/>
	<rect x="22" fill="#111111" width="10" height="10"/>
	<rect y="22" fill="#111111" width="10" height="10"/>
	<rect x="22" y="22" fill="#111111" width="10" height="10"/>
</g>
</svg>
