<?xml version="1.0" encoding="utf-8"?>
<!-- Generator: Adobe Illustrator 15.0.0, SVG Export Plug-In . SVG Version: 6.00 Build 0)  -->
<!DOCTYPE svg PUBLIC "-//W3C//DTD SVG 1.1//EN" "http://www.w3.org/Graphics/SVG/1.1/DTD/svg11.dtd">
<svg version="1.1" id="icon" xmlns="http://www.w3.org/2000/svg" xmlns:xlink="http://www.w3.org/1999/xlink" x="0px" y="0px"
	 width="30px" height="30px" viewBox="0 0 30 30" enable-background="new 0 0 30 30" xml:space="preserve">
<g>
	<linearGradient id="SVGID_1_" gradientUnits="userSpaceOnUse" x1="7.4668" y1="22.5342" x2="22.5344" y2="7.4666">
		<stop  offset="0" style="stop-color:#F2B260"/>
		<stop  offset="0.5" style="stop-color:#DB5B66"/>
		<stop  offset="1" style="stop-color:#A33AB5"/>
	</linearGradient>
	<path fill="url(#SVGID_1_)" d="M19,24h-8c-2.757,0-5-2.243-5-5v-8c0-2.757,2.243-5,5-5h8c2.757,0,5,2.243,5,5v8
		C24,21.757,21.757,24,19,24z M11,8c-1.654,0-3,1.346-3,3v8c0,1.654,1.346,3,3,3h8c1.654,0,3-1.346,3-3v-8c0-1.654-1.346-3-3-3H11z"
		/>
	<linearGradient id="SVGID_2_" gradientUnits="userSpaceOnUse" x1="12.1733" y1="17.8281" x2="17.8279" y2="12.1736">
		<stop  offset="0" style="stop-color:#F2B260"/>
		<stop  offset="0.5" style="stop-color:#DB5B66"/>
		<stop  offset="1" style="stop-color:#A33AB5"/>
	</linearGradient>
	<path fill="url(#SVGID_2_)" d="M15,19c-2.206,0-4-1.794-4-4s1.794-4,4-4s4,1.794,4,4S17.206,19,15,19z M15,13c-1.103,0-2,0.897-2,2
		c0,1.104,0.897,2,2,2c1.104,0,2-0.896,2-2C17,13.897,16.104,13,15,13z"/>
	<linearGradient id="SVGID_3_" gradientUnits="userSpaceOnUse" x1="19.293" y1="10.7075" x2="20.7073" y2="9.2932">
		<stop  offset="0" style="stop-color:#F2B260"/>
		<stop  offset="0.5" style="stop-color:#DB5B66"/>
		<stop  offset="1" style="stop-color:#A33AB5"/>
	</linearGradient>
	<circle fill="url(#SVGID_3_)" cx="20" cy="10" r="1"/>
</g>
</svg>
